# xmcd CD database file
#
# Track frame offsets:
#	150
#	10875
#	25725
#	39000
#	51697
#	61947
#	73957
#	83025
#	95525
#	108765
#	119675
#	130125
#	144625
#	154100
#	165745
#	177685
#	191800
#	202260
#
# Disc length: 2886 seconds
#
# Revision: 2
# Processed by: cddbd v1.4PL0 Copyright (c) Steve Scherf et al.
# Submitted via: CDex 1.50Beta7
#
DISCID=090b4412
DTITLE=Pioneer Orchestra - Great Western Film Melodies
DYEAR=1900
DGENRE=
TTITLE0=Bonanza
TTITLE1=Once Upon A Time In The West
TTITLE2=The Good, The Bad And The Ugly
TTITLE3=The Magnificient Seven
TTITLE4=The Green Leaves Of Summer
TTITLE5=High Noon
TTITLE6=A Fistful Of Dollars
TTITLE7=The Theme From Hondo
TTITLE8=The Man With The Harmonica
TTITLE9=A Professional Gun
TTITLE10=The Return Of The Seven
TTITLE11=Wand'rin' Star
TTITLE12=Hang 'em High
TTITLE13=The Man From Laramie
TTITLE14=How The West Was Won
TTITLE15=Ballad Of The Alamo
TTITLE16=The Comancheros
TTITLE17=True Grit
EXTD=
EXTT0=
EXTT1=
EXTT2=
EXTT3=
EXTT4=
EXTT5=
EXTT6=
EXTT7=
EXTT8=
EXTT9=
EXTT10=
EXTT11=
EXTT12=
EXTT13=
EXTT14=
EXTT15=
EXTT16=
EXTT17=
PLAYORDER=
